<mxfile host="app.diagrams.net" modified="2023-08-29T11:22:56.243Z" agent="Mozilla/5.0 (Windows NT 10.0; Win64; x64) AppleWebKit/537.36 (KHTML, like Gecko) Chrome/116.0.0.0 Safari/537.36" etag="b9w3xDXtGz06lL563aqw" version="21.6.9" type="device">
  <diagram name="PÃ¡gina-1" id="iMfVinrq33G-UO4wthHZ">
    <mxGraphModel dx="1434" dy="758" grid="1" gridSize="10" guides="1" tooltips="1" connect="1" arrows="1" fold="1" page="1" pageScale="1" pageWidth="827" pageHeight="1169" math="0" shadow="0">
      <root>
        <mxCell id="0" />
        <mxCell id="1" parent="0" />
        <mxCell id="emGNLSJImwrqY2CyBinJ-1" value="Maintainance activity diagram" style="text;strokeColor=none;fillColor=none;html=1;fontSize=24;fontStyle=1;verticalAlign=middle;align=center;" parent="1" vertex="1">
          <mxGeometry x="870" y="30" width="100" height="40" as="geometry" />
        </mxCell>
        <mxCell id="emGNLSJImwrqY2CyBinJ-2" value="Project: Fleet management system" style="text;align=center;fontStyle=1;verticalAlign=middle;spacingLeft=3;spacingRight=3;strokeColor=none;rotatable=0;points=[[0,0.5],[1,0.5]];portConstraint=eastwest;html=1;" parent="1" vertex="1">
          <mxGeometry x="950" y="60" width="80" height="26" as="geometry" />
        </mxCell>
        <mxCell id="7y2WdlIyoPqkTRMjiAGE-1" value="" style="ellipse;html=1;shape=startState;fillColor=#000000;strokeColor=#000000;" vertex="1" parent="1">
          <mxGeometry x="100" y="250" width="30" height="30" as="geometry" />
        </mxCell>
        <mxCell id="7y2WdlIyoPqkTRMjiAGE-2" value="" style="edgeStyle=orthogonalEdgeStyle;html=1;verticalAlign=bottom;endArrow=block;endSize=8;strokeColor=#000000;rounded=0;endFill=1;" edge="1" source="7y2WdlIyoPqkTRMjiAGE-1" parent="1">
          <mxGeometry relative="1" as="geometry">
            <mxPoint x="210" y="265" as="targetPoint" />
          </mxGeometry>
        </mxCell>
        <mxCell id="7y2WdlIyoPqkTRMjiAGE-3" value="First line technical diagnosis" style="rounded=1;whiteSpace=wrap;html=1;" vertex="1" parent="1">
          <mxGeometry x="210" y="235" width="120" height="60" as="geometry" />
        </mxCell>
        <mxCell id="7y2WdlIyoPqkTRMjiAGE-4" value="Assign service center/team" style="rounded=1;whiteSpace=wrap;html=1;" vertex="1" parent="1">
          <mxGeometry x="470" y="235" width="120" height="60" as="geometry" />
        </mxCell>
        <mxCell id="7y2WdlIyoPqkTRMjiAGE-5" value="" style="rhombus;whiteSpace=wrap;html=1;" vertex="1" parent="1">
          <mxGeometry x="380" y="243" width="40" height="40" as="geometry" />
        </mxCell>
        <mxCell id="7y2WdlIyoPqkTRMjiAGE-6" value="" style="edgeStyle=orthogonalEdgeStyle;html=1;verticalAlign=bottom;endArrow=block;endSize=8;strokeColor=#000000;rounded=0;endFill=1;" edge="1" parent="1">
          <mxGeometry relative="1" as="geometry">
            <mxPoint x="380" y="264.5" as="targetPoint" />
            <mxPoint x="330" y="264.5" as="sourcePoint" />
          </mxGeometry>
        </mxCell>
        <mxCell id="7y2WdlIyoPqkTRMjiAGE-7" value="" style="edgeStyle=orthogonalEdgeStyle;html=1;verticalAlign=bottom;endArrow=block;endSize=8;strokeColor=#000000;rounded=0;endFill=1;" edge="1" parent="1">
          <mxGeometry relative="1" as="geometry">
            <mxPoint x="470" y="264.5" as="targetPoint" />
            <mxPoint x="420" y="264.5" as="sourcePoint" />
          </mxGeometry>
        </mxCell>
        <mxCell id="7y2WdlIyoPqkTRMjiAGE-8" value="&lt;font style=&quot;font-size: 12px;&quot;&gt;No&lt;/font&gt;" style="edgeLabel;html=1;align=center;verticalAlign=middle;resizable=0;points=[];" vertex="1" connectable="0" parent="7y2WdlIyoPqkTRMjiAGE-7">
          <mxGeometry x="-0.28" relative="1" as="geometry">
            <mxPoint y="1" as="offset" />
          </mxGeometry>
        </mxCell>
        <mxCell id="7y2WdlIyoPqkTRMjiAGE-9" value="Could be fixed right now?" style="text;html=1;strokeColor=none;fillColor=none;align=center;verticalAlign=middle;whiteSpace=wrap;rounded=0;" vertex="1" parent="1">
          <mxGeometry x="360" y="201" width="80" height="30" as="geometry" />
        </mxCell>
        <mxCell id="7y2WdlIyoPqkTRMjiAGE-10" value="" style="edgeStyle=orthogonalEdgeStyle;html=1;verticalAlign=bottom;endArrow=block;endSize=8;strokeColor=#000000;rounded=0;endFill=1;" edge="1" parent="1">
          <mxGeometry relative="1" as="geometry">
            <mxPoint x="640" y="262.5" as="targetPoint" />
            <mxPoint x="590" y="262.5" as="sourcePoint" />
          </mxGeometry>
        </mxCell>
        <mxCell id="7y2WdlIyoPqkTRMjiAGE-11" value="" style="rhombus;whiteSpace=wrap;html=1;" vertex="1" parent="1">
          <mxGeometry x="640" y="243" width="40" height="40" as="geometry" />
        </mxCell>
        <mxCell id="7y2WdlIyoPqkTRMjiAGE-12" value="Perfom detailed technical diagnosis" style="rounded=1;whiteSpace=wrap;html=1;" vertex="1" parent="1">
          <mxGeometry x="599" y="330" width="120" height="60" as="geometry" />
        </mxCell>
        <mxCell id="7y2WdlIyoPqkTRMjiAGE-13" value="" style="edgeStyle=orthogonalEdgeStyle;html=1;verticalAlign=bottom;endArrow=block;endSize=8;strokeColor=#000000;rounded=0;endFill=1;" edge="1" parent="1">
          <mxGeometry relative="1" as="geometry">
            <mxPoint x="660" y="330" as="targetPoint" />
            <mxPoint x="659.5" y="280" as="sourcePoint" />
          </mxGeometry>
        </mxCell>
        <mxCell id="7y2WdlIyoPqkTRMjiAGE-15" value="" style="edgeStyle=orthogonalEdgeStyle;html=1;verticalAlign=bottom;endArrow=block;endSize=8;strokeColor=#000000;rounded=0;endFill=1;" edge="1" parent="1">
          <mxGeometry relative="1" as="geometry">
            <mxPoint x="659" y="415" as="targetPoint" />
            <mxPoint x="658.5" y="390" as="sourcePoint" />
          </mxGeometry>
        </mxCell>
        <mxCell id="7y2WdlIyoPqkTRMjiAGE-16" value="" style="rhombus;whiteSpace=wrap;html=1;" vertex="1" parent="1">
          <mxGeometry x="639" y="415" width="40" height="40" as="geometry" />
        </mxCell>
        <mxCell id="7y2WdlIyoPqkTRMjiAGE-18" value="" style="endArrow=none;html=1;rounded=0;" edge="1" parent="1">
          <mxGeometry width="50" height="50" relative="1" as="geometry">
            <mxPoint x="660" y="490" as="sourcePoint" />
            <mxPoint x="659.5" y="455" as="targetPoint" />
          </mxGeometry>
        </mxCell>
        <mxCell id="7y2WdlIyoPqkTRMjiAGE-20" value="&lt;font style=&quot;font-size: 12px;&quot;&gt;Yes&lt;/font&gt;" style="edgeLabel;html=1;align=center;verticalAlign=middle;resizable=0;points=[];" vertex="1" connectable="0" parent="7y2WdlIyoPqkTRMjiAGE-18">
          <mxGeometry x="-0.0271" y="2" relative="1" as="geometry">
            <mxPoint as="offset" />
          </mxGeometry>
        </mxCell>
        <mxCell id="7y2WdlIyoPqkTRMjiAGE-19" value="" style="edgeStyle=orthogonalEdgeStyle;html=1;verticalAlign=bottom;endArrow=block;endSize=8;strokeColor=#000000;rounded=0;endFill=1;" edge="1" parent="1">
          <mxGeometry relative="1" as="geometry">
            <mxPoint x="600" y="490" as="targetPoint" />
            <mxPoint x="660" y="490" as="sourcePoint" />
          </mxGeometry>
        </mxCell>
        <mxCell id="7y2WdlIyoPqkTRMjiAGE-21" value="Book required parts" style="rounded=1;whiteSpace=wrap;html=1;" vertex="1" parent="1">
          <mxGeometry x="480" y="460" width="120" height="60" as="geometry" />
        </mxCell>
        <mxCell id="7y2WdlIyoPqkTRMjiAGE-22" value="Are new parts/assembly required?" style="text;html=1;strokeColor=none;fillColor=none;align=center;verticalAlign=middle;whiteSpace=wrap;rounded=0;" vertex="1" parent="1">
          <mxGeometry x="542" y="410" width="100" height="40" as="geometry" />
        </mxCell>
        <mxCell id="7y2WdlIyoPqkTRMjiAGE-23" value="" style="endArrow=none;html=1;rounded=0;" edge="1" parent="1">
          <mxGeometry width="50" height="50" relative="1" as="geometry">
            <mxPoint x="679" y="434.5" as="sourcePoint" />
            <mxPoint x="739" y="435" as="targetPoint" />
          </mxGeometry>
        </mxCell>
        <mxCell id="7y2WdlIyoPqkTRMjiAGE-24" value="&lt;font style=&quot;font-size: 12px;&quot;&gt;No&lt;/font&gt;" style="edgeLabel;html=1;align=center;verticalAlign=middle;resizable=0;points=[];" vertex="1" connectable="0" parent="7y2WdlIyoPqkTRMjiAGE-23">
          <mxGeometry x="-0.5" y="-3" relative="1" as="geometry">
            <mxPoint x="6" y="-2" as="offset" />
          </mxGeometry>
        </mxCell>
        <mxCell id="7y2WdlIyoPqkTRMjiAGE-26" value="" style="edgeStyle=orthogonalEdgeStyle;html=1;verticalAlign=bottom;endArrow=block;endSize=8;strokeColor=#000000;rounded=0;endFill=1;" edge="1" parent="1">
          <mxGeometry relative="1" as="geometry">
            <mxPoint x="740" y="590" as="targetPoint" />
            <mxPoint x="740" y="435" as="sourcePoint" />
          </mxGeometry>
        </mxCell>
        <mxCell id="7y2WdlIyoPqkTRMjiAGE-27" value="" style="rhombus;whiteSpace=wrap;html=1;" vertex="1" parent="1">
          <mxGeometry x="720" y="591" width="40" height="40" as="geometry" />
        </mxCell>
        <mxCell id="7y2WdlIyoPqkTRMjiAGE-28" value="" style="edgeStyle=orthogonalEdgeStyle;html=1;verticalAlign=bottom;endArrow=block;endSize=8;strokeColor=#000000;rounded=0;endFill=1;" edge="1" parent="1">
          <mxGeometry relative="1" as="geometry">
            <mxPoint x="540" y="545" as="targetPoint" />
            <mxPoint x="539.5" y="520" as="sourcePoint" />
          </mxGeometry>
        </mxCell>
        <mxCell id="7y2WdlIyoPqkTRMjiAGE-29" value="" style="rhombus;whiteSpace=wrap;html=1;" vertex="1" parent="1">
          <mxGeometry x="520" y="545" width="40" height="40" as="geometry" />
        </mxCell>
        <mxCell id="7y2WdlIyoPqkTRMjiAGE-30" value="" style="endArrow=none;html=1;rounded=0;" edge="1" parent="1">
          <mxGeometry width="50" height="50" relative="1" as="geometry">
            <mxPoint x="560" y="564.5" as="sourcePoint" />
            <mxPoint x="610" y="565" as="targetPoint" />
          </mxGeometry>
        </mxCell>
        <mxCell id="7y2WdlIyoPqkTRMjiAGE-31" value="&lt;font style=&quot;font-size: 12px;&quot;&gt;Yes&lt;/font&gt;" style="edgeLabel;html=1;align=center;verticalAlign=middle;resizable=0;points=[];" vertex="1" connectable="0" parent="7y2WdlIyoPqkTRMjiAGE-30">
          <mxGeometry x="-0.2799" relative="1" as="geometry">
            <mxPoint as="offset" />
          </mxGeometry>
        </mxCell>
        <mxCell id="7y2WdlIyoPqkTRMjiAGE-32" value="" style="endArrow=none;html=1;rounded=0;" edge="1" parent="1">
          <mxGeometry width="50" height="50" relative="1" as="geometry">
            <mxPoint x="610" y="610" as="sourcePoint" />
            <mxPoint x="610" y="565" as="targetPoint" />
          </mxGeometry>
        </mxCell>
        <mxCell id="7y2WdlIyoPqkTRMjiAGE-34" value="" style="edgeStyle=orthogonalEdgeStyle;html=1;verticalAlign=bottom;endArrow=block;endSize=8;strokeColor=#000000;rounded=0;endFill=1;" edge="1" parent="1">
          <mxGeometry relative="1" as="geometry">
            <mxPoint x="720" y="610.5" as="targetPoint" />
            <mxPoint x="610" y="610" as="sourcePoint" />
          </mxGeometry>
        </mxCell>
        <mxCell id="7y2WdlIyoPqkTRMjiAGE-35" value="" style="endArrow=none;html=1;rounded=0;" edge="1" parent="1">
          <mxGeometry width="50" height="50" relative="1" as="geometry">
            <mxPoint x="469" y="564.5" as="sourcePoint" />
            <mxPoint x="519" y="565" as="targetPoint" />
          </mxGeometry>
        </mxCell>
        <mxCell id="7y2WdlIyoPqkTRMjiAGE-37" value="&lt;font style=&quot;font-size: 12px;&quot;&gt;No&lt;/font&gt;" style="edgeLabel;html=1;align=center;verticalAlign=middle;resizable=0;points=[];" vertex="1" connectable="0" parent="7y2WdlIyoPqkTRMjiAGE-35">
          <mxGeometry x="-0.0391" y="-2" relative="1" as="geometry">
            <mxPoint as="offset" />
          </mxGeometry>
        </mxCell>
        <mxCell id="7y2WdlIyoPqkTRMjiAGE-39" value="" style="edgeStyle=orthogonalEdgeStyle;html=1;verticalAlign=bottom;endArrow=block;endSize=8;strokeColor=#000000;rounded=0;endFill=1;" edge="1" parent="1">
          <mxGeometry relative="1" as="geometry">
            <mxPoint x="469" y="659" as="targetPoint" />
            <mxPoint x="469" y="565" as="sourcePoint" />
          </mxGeometry>
        </mxCell>
        <mxCell id="7y2WdlIyoPqkTRMjiAGE-40" value="Are parts/assembly in stock?" style="text;html=1;strokeColor=none;fillColor=none;align=center;verticalAlign=middle;whiteSpace=wrap;rounded=0;" vertex="1" parent="1">
          <mxGeometry x="495" y="596" width="90" height="30" as="geometry" />
        </mxCell>
        <mxCell id="7y2WdlIyoPqkTRMjiAGE-41" value="Order parts from vendor" style="rounded=1;whiteSpace=wrap;html=1;" vertex="1" parent="1">
          <mxGeometry x="414" y="660" width="120" height="60" as="geometry" />
        </mxCell>
        <mxCell id="7y2WdlIyoPqkTRMjiAGE-42" value="" style="edgeStyle=orthogonalEdgeStyle;html=1;verticalAlign=bottom;endArrow=block;endSize=8;strokeColor=#000000;rounded=0;endFill=1;" edge="1" parent="1">
          <mxGeometry relative="1" as="geometry">
            <mxPoint x="790" y="610" as="targetPoint" />
            <mxPoint x="760" y="610.5" as="sourcePoint" />
          </mxGeometry>
        </mxCell>
        <mxCell id="7y2WdlIyoPqkTRMjiAGE-44" value="Book technical specialist" style="rounded=1;whiteSpace=wrap;html=1;" vertex="1" parent="1">
          <mxGeometry x="790" y="585" width="120" height="60" as="geometry" />
        </mxCell>
        <mxCell id="7y2WdlIyoPqkTRMjiAGE-45" value="" style="edgeStyle=orthogonalEdgeStyle;html=1;verticalAlign=bottom;endArrow=block;endSize=8;strokeColor=#000000;rounded=0;endFill=1;" edge="1" parent="1">
          <mxGeometry relative="1" as="geometry">
            <mxPoint x="470" y="790" as="targetPoint" />
            <mxPoint x="470" y="720" as="sourcePoint" />
          </mxGeometry>
        </mxCell>
        <mxCell id="7y2WdlIyoPqkTRMjiAGE-46" value="Put parts into stock" style="rounded=1;whiteSpace=wrap;html=1;" vertex="1" parent="1">
          <mxGeometry x="414" y="790" width="120" height="60" as="geometry" />
        </mxCell>
        <mxCell id="7y2WdlIyoPqkTRMjiAGE-47" value="" style="endArrow=none;html=1;rounded=0;" edge="1" parent="1">
          <mxGeometry width="50" height="50" relative="1" as="geometry">
            <mxPoint x="534" y="819.5" as="sourcePoint" />
            <mxPoint x="740" y="820" as="targetPoint" />
          </mxGeometry>
        </mxCell>
        <mxCell id="7y2WdlIyoPqkTRMjiAGE-48" value="" style="edgeStyle=orthogonalEdgeStyle;html=1;verticalAlign=bottom;endArrow=block;endSize=8;strokeColor=#000000;rounded=0;endFill=1;entryX=0.5;entryY=1;entryDx=0;entryDy=0;" edge="1" parent="1" target="7y2WdlIyoPqkTRMjiAGE-27">
          <mxGeometry relative="1" as="geometry">
            <mxPoint x="740" y="695" as="targetPoint" />
            <mxPoint x="740" y="820" as="sourcePoint" />
          </mxGeometry>
        </mxCell>
        <mxCell id="7y2WdlIyoPqkTRMjiAGE-49" value="" style="endArrow=none;html=1;rounded=0;" edge="1" parent="1">
          <mxGeometry width="50" height="50" relative="1" as="geometry">
            <mxPoint x="400" y="350" as="sourcePoint" />
            <mxPoint x="399.5" y="283" as="targetPoint" />
          </mxGeometry>
        </mxCell>
        <mxCell id="7y2WdlIyoPqkTRMjiAGE-50" value="&lt;font style=&quot;font-size: 12px;&quot;&gt;Yes&lt;/font&gt;" style="edgeLabel;html=1;align=center;verticalAlign=middle;resizable=0;points=[];" vertex="1" connectable="0" parent="7y2WdlIyoPqkTRMjiAGE-49">
          <mxGeometry x="-0.28" y="1" relative="1" as="geometry">
            <mxPoint x="1" as="offset" />
          </mxGeometry>
        </mxCell>
        <mxCell id="7y2WdlIyoPqkTRMjiAGE-51" value="" style="endArrow=none;html=1;rounded=0;" edge="1" parent="1">
          <mxGeometry width="50" height="50" relative="1" as="geometry">
            <mxPoint x="280" y="350" as="sourcePoint" />
            <mxPoint x="400" y="350" as="targetPoint" />
          </mxGeometry>
        </mxCell>
        <mxCell id="7y2WdlIyoPqkTRMjiAGE-54" value="" style="rhombus;whiteSpace=wrap;html=1;" vertex="1" parent="1">
          <mxGeometry x="260" y="880" width="40" height="40" as="geometry" />
        </mxCell>
        <mxCell id="7y2WdlIyoPqkTRMjiAGE-55" value="" style="edgeStyle=orthogonalEdgeStyle;html=1;verticalAlign=bottom;endArrow=block;endSize=8;strokeColor=#000000;rounded=0;endFill=1;" edge="1" parent="1">
          <mxGeometry relative="1" as="geometry">
            <mxPoint x="279.5" y="880" as="targetPoint" />
            <mxPoint x="280" y="350" as="sourcePoint" />
          </mxGeometry>
        </mxCell>
        <mxCell id="7y2WdlIyoPqkTRMjiAGE-56" value="" style="endArrow=none;html=1;rounded=0;" edge="1" parent="1">
          <mxGeometry width="50" height="50" relative="1" as="geometry">
            <mxPoint x="850" y="900" as="sourcePoint" />
            <mxPoint x="849.5" y="645" as="targetPoint" />
          </mxGeometry>
        </mxCell>
        <mxCell id="7y2WdlIyoPqkTRMjiAGE-57" value="" style="edgeStyle=orthogonalEdgeStyle;html=1;verticalAlign=bottom;endArrow=block;endSize=8;strokeColor=#000000;rounded=0;endFill=1;" edge="1" parent="1">
          <mxGeometry relative="1" as="geometry">
            <mxPoint x="300" y="899.5" as="targetPoint" />
            <mxPoint x="850" y="900" as="sourcePoint" />
          </mxGeometry>
        </mxCell>
        <mxCell id="7y2WdlIyoPqkTRMjiAGE-58" value="" style="edgeStyle=orthogonalEdgeStyle;html=1;verticalAlign=bottom;endArrow=block;endSize=8;strokeColor=#000000;rounded=0;endFill=1;" edge="1" parent="1">
          <mxGeometry relative="1" as="geometry">
            <mxPoint x="200" y="899.5" as="targetPoint" />
            <mxPoint x="260" y="899.5" as="sourcePoint" />
          </mxGeometry>
        </mxCell>
        <mxCell id="7y2WdlIyoPqkTRMjiAGE-59" value="Maintain" style="rounded=1;whiteSpace=wrap;html=1;" vertex="1" parent="1">
          <mxGeometry x="80" y="880" width="120" height="60" as="geometry" />
        </mxCell>
        <mxCell id="7y2WdlIyoPqkTRMjiAGE-60" value="" style="edgeStyle=orthogonalEdgeStyle;html=1;verticalAlign=bottom;endArrow=block;endSize=8;strokeColor=#000000;rounded=0;endFill=1;" edge="1" parent="1">
          <mxGeometry relative="1" as="geometry">
            <mxPoint x="140" y="1000" as="targetPoint" />
            <mxPoint x="139.5" y="940" as="sourcePoint" />
          </mxGeometry>
        </mxCell>
        <mxCell id="7y2WdlIyoPqkTRMjiAGE-61" value="" style="rhombus;whiteSpace=wrap;html=1;" vertex="1" parent="1">
          <mxGeometry x="120" y="1000" width="40" height="40" as="geometry" />
        </mxCell>
        <mxCell id="7y2WdlIyoPqkTRMjiAGE-62" value="Is vehicle ok?" style="text;html=1;strokeColor=none;fillColor=none;align=center;verticalAlign=middle;whiteSpace=wrap;rounded=0;" vertex="1" parent="1">
          <mxGeometry x="100" y="1040" width="90" height="30" as="geometry" />
        </mxCell>
        <mxCell id="7y2WdlIyoPqkTRMjiAGE-63" value="" style="edgeStyle=orthogonalEdgeStyle;html=1;verticalAlign=bottom;endArrow=block;endSize=8;strokeColor=#000000;rounded=0;endFill=1;" edge="1" parent="1">
          <mxGeometry relative="1" as="geometry">
            <mxPoint x="40" y="1020" as="targetPoint" />
            <mxPoint x="120" y="1019.5" as="sourcePoint" />
          </mxGeometry>
        </mxCell>
        <mxCell id="7y2WdlIyoPqkTRMjiAGE-64" value="&lt;font style=&quot;font-size: 12px;&quot;&gt;Yes&lt;/font&gt;" style="edgeLabel;html=1;align=center;verticalAlign=middle;resizable=0;points=[];" vertex="1" connectable="0" parent="7y2WdlIyoPqkTRMjiAGE-63">
          <mxGeometry x="-0.1307" y="-1" relative="1" as="geometry">
            <mxPoint as="offset" />
          </mxGeometry>
        </mxCell>
        <mxCell id="7y2WdlIyoPqkTRMjiAGE-65" value="" style="ellipse;html=1;shape=endState;fillColor=#000000;strokeColor=#000000;" vertex="1" parent="1">
          <mxGeometry x="10" y="1005" width="30" height="30" as="geometry" />
        </mxCell>
        <mxCell id="7y2WdlIyoPqkTRMjiAGE-66" value="" style="endArrow=none;html=1;rounded=0;" edge="1" parent="1">
          <mxGeometry width="50" height="50" relative="1" as="geometry">
            <mxPoint x="160" y="1019.5" as="sourcePoint" />
            <mxPoint x="960" y="1020" as="targetPoint" />
          </mxGeometry>
        </mxCell>
        <mxCell id="7y2WdlIyoPqkTRMjiAGE-69" value="&lt;font style=&quot;font-size: 12px;&quot;&gt;No&lt;/font&gt;" style="edgeLabel;html=1;align=center;verticalAlign=middle;resizable=0;points=[];" vertex="1" connectable="0" parent="7y2WdlIyoPqkTRMjiAGE-66">
          <mxGeometry x="-0.8425" y="3" relative="1" as="geometry">
            <mxPoint as="offset" />
          </mxGeometry>
        </mxCell>
        <mxCell id="7y2WdlIyoPqkTRMjiAGE-67" value="" style="endArrow=none;html=1;rounded=0;" edge="1" parent="1">
          <mxGeometry width="50" height="50" relative="1" as="geometry">
            <mxPoint x="960" y="1020" as="sourcePoint" />
            <mxPoint x="960" y="265" as="targetPoint" />
          </mxGeometry>
        </mxCell>
        <mxCell id="7y2WdlIyoPqkTRMjiAGE-68" value="" style="edgeStyle=orthogonalEdgeStyle;html=1;verticalAlign=bottom;endArrow=block;endSize=8;strokeColor=#000000;rounded=0;endFill=1;" edge="1" parent="1">
          <mxGeometry relative="1" as="geometry">
            <mxPoint x="679" y="264.5" as="targetPoint" />
            <mxPoint x="960" y="265" as="sourcePoint" />
          </mxGeometry>
        </mxCell>
        <mxCell id="7y2WdlIyoPqkTRMjiAGE-70" value="Maintainance inquiry" style="text;html=1;strokeColor=none;fillColor=none;align=center;verticalAlign=middle;whiteSpace=wrap;rounded=0;" vertex="1" parent="1">
          <mxGeometry x="70" y="283" width="80" height="30" as="geometry" />
        </mxCell>
      </root>
    </mxGraphModel>
  </diagram>
</mxfile>
